<?xml version="1.0" encoding="UTF-8"?>
<svg width="200px" height="200px" viewBox="0 0 200 200" version="1.1" xmlns="http://www.w3.org/2000/svg"
    xmlns:xlink="http://www.w3.org/1999/xlink">
    <title>search</title>
    <g id="search" stroke="none" stroke-width="1" fill="none" fill-rule="evenodd">
        <g id="Combined-Shape-2" transform="translate(10.000000, 10.000000)" fill="#F9F9F9" fill-rule="nonzero">
            <path
                d="M71.25,0 C110.600288,0 142.5,31.8997116 142.5,71.25 C142.5,86.7588772 137.544909,101.110431 129.131517,112.807871 L176.622522,160.310185 C181.128061,164.816737 181.125498,172.12074 176.616797,176.624131 C172.275085,180.960731 165.338067,181.11897 160.806934,177.100602 L160.295072,176.618409 L112.813874,129.127199 C101.115341,137.543214 86.76153,142.5 71.25,142.5 C31.8997116,142.5 0,110.600288 0,71.25 C0,31.8997116 31.8997116,0 71.25,0 Z M71.25,18.2564192 C41.9923992,18.2564192 18.2692308,41.9795877 18.2692308,71.25 C18.2692308,100.520412 41.9923992,124.243581 71.25,124.243581 C100.507601,124.243581 124.230769,100.520412 124.230769,71.25 C124.230769,41.9795877 100.507601,18.2564192 71.25,18.2564192 Z"
                id="Combined-Shape"></path>
        </g>
    </g>
</svg>